<svg version="1.1" id="Layer_1" xmlns="http://www.w3.org/2000/svg" xmlns:xlink="http://www.w3.org/1999/xlink" x="0px" y="0px"
	 width="100%" viewBox="0 0 734 761" enable-background="new 0 0 734 761" xml:space="preserve">
<path fill="#FEFEFE" opacity="1.000000" stroke="none" 
	d="
M1.000000,287.000000 
	C1.000000,192.666672 1.023952,98.833305 0.904313,5.000122 
	C0.899947,1.575955 1.576509,0.904290 5.000041,0.905756 
	C247.000000,1.009349 489.000000,1.009349 730.999939,0.905756 
	C734.423523,0.904290 735.095581,1.576520 735.094177,5.000039 
	C734.990967,256.000000 734.990967,507.000000 735.094177,757.999939 
	C735.095581,761.423462 734.423523,762.095703 730.999939,762.094238 
	C489.000000,761.990662 247.000000,761.990662 5.000041,762.094238 
	C1.576510,762.095703 0.902865,761.423706 0.905248,757.999939 
	C1.014388,601.166687 1.000000,444.333344 1.000000,287.000000 
z"/>
<path fill="#306E7D" opacity="1.000000" stroke="none" 
	d="
M232.796799,73.439590 
	C246.514984,66.204048 260.804352,61.433872 275.020081,56.481007 
	C278.147217,55.391499 277.636810,58.217873 278.087585,59.657673 
	C283.748322,77.737877 289.344208,95.838440 294.931610,113.941536 
	C317.918335,188.418350 340.895813,262.898041 363.883209,337.374634 
	C364.219208,338.463165 364.638977,339.525848 365.387939,341.640442 
	C368.057373,333.611481 370.445557,326.537048 372.763641,319.439697 
	C400.522034,234.450928 428.310638,149.471924 455.905121,64.429955 
	C457.336945,60.017361 458.929108,59.357933 462.817902,61.201252 
	C466.559143,62.974644 470.532806,64.257637 474.713684,65.949654 
	C476.844727,68.836426 476.402527,71.903496 476.403076,74.872368 
	C476.418701,160.640945 476.415253,246.409531 476.415314,332.178101 
	C476.415375,427.272980 476.420471,522.367859 476.391266,617.462708 
	C476.390411,620.255554 476.931122,623.146912 475.261108,626.243530 
	C468.376740,629.219177 461.726196,631.753357 454.242157,634.605103 
	C453.518677,525.309448 452.800568,416.820679 452.082428,308.331879 
	C451.793762,308.252594 451.505096,308.173340 451.216431,308.094055 
	C422.480835,393.509766 393.745270,478.925446 364.685638,565.304382 
	C336.867249,479.867554 309.406860,395.530121 281.946442,311.192719 
	C281.696838,311.236511 281.447205,311.280334 281.197601,311.324127 
	C280.170532,419.776581 279.143463,528.229004 278.112305,637.113342 
	C262.724274,632.739197 248.253036,627.485535 234.166504,620.356079 
	C232.189194,617.738708 232.602356,614.995911 232.599701,612.360657 
	C232.574585,587.361511 232.585251,562.362427 232.585236,537.363281 
	C232.585114,386.201874 232.585068,235.040466 232.584869,83.879051 
	C232.584869,81.211731 232.600067,78.544296 232.524597,75.379028 
	C232.531387,74.548874 232.551987,74.216995 232.796799,73.439590 
z"/>
<path fill="#9E3149" opacity="1.000000" stroke="none" 
	d="
M475.817841,67.069138 
	C498.265747,75.131546 518.756714,86.831268 537.920654,100.785378 
	C589.358398,138.239349 625.780762,186.992249 646.987915,247.023224 
	C654.444519,268.130402 659.063538,289.897308 661.886292,312.086578 
	C662.412598,316.223541 661.095886,317.058502 657.202820,316.968170 
	C640.042725,316.569885 622.875854,316.397003 605.710754,316.339325 
	C602.408630,316.328247 601.276489,315.467438 600.868408,311.980469 
	C595.246521,263.939941 578.297180,220.792725 545.254578,184.711807 
	C538.720703,177.577118 531.799377,170.834167 524.468567,164.519958 
	C523.636902,163.803650 522.966675,162.709625 521.189392,162.743896 
	C520.366211,287.323944 519.543152,411.888824 518.720520,536.387634 
	C520.686157,537.236328 521.323853,535.649292 522.162170,534.867432 
	C565.340881,494.599121 593.231384,446.016663 602.045410,387.186981 
	C602.746704,382.505768 604.003845,380.641724 609.224915,380.755585 
	C625.048401,381.100800 640.888611,380.831116 656.719116,380.594147 
	C660.416687,380.538818 661.860779,380.937805 661.257446,385.403839 
	C653.558044,442.400848 631.743408,493.284058 595.379272,537.815491 
	C563.267944,577.138916 523.693237,606.563965 476.375793,626.013367 
	C475.153107,624.640808 475.532715,623.101379 475.532562,621.633484 
	C475.514862,437.591217 475.514465,253.548950 475.515381,69.506676 
	C475.515381,68.840500 475.532654,68.175293 475.817841,67.069138 
z"/>
<path fill="#182557" opacity="1.000000" stroke="none" 
	d="
M232.652740,72.988770 
	C233.018539,73.164101 233.016068,73.334145 233.040146,73.757896 
	C233.853928,75.770226 233.465393,77.629730 233.465607,79.437210 
	C233.485992,257.361633 233.487045,435.286072 233.453339,613.210510 
	C233.452972,615.152222 234.068451,617.208313 232.371460,619.088318 
	C231.556152,619.026184 231.206787,618.981262 230.926926,618.817505 
	C224.901901,615.291809 217.376801,612.966553 213.283371,607.880554 
	C209.059265,602.632202 211.886536,594.477417 211.877029,587.625671 
	C211.783768,520.462036 211.821640,453.297974 212.029846,386.134674 
	C212.043823,381.622437 210.831421,380.719238 206.541809,380.747284 
	C180.877655,380.915161 155.210480,380.860840 129.546814,380.618500 
	C125.413216,380.579498 124.556793,381.738739 125.152809,385.617859 
	C132.741028,435.005096 151.206711,479.320740 185.757034,516.168030 
	C187.262680,517.773804 187.719070,519.398865 187.662735,521.530518 
	C187.046448,544.851807 186.513062,568.175293 185.924973,592.847046 
	C114.405167,538.897217 70.673721,469.096252 61.575043,380.566467 
	C49.654919,264.584106 93.590195,171.856186 184.658493,100.158897 
	C186.576126,102.249725 185.964172,103.807510 185.967133,105.190620 
	C186.014603,127.356255 185.926331,149.522507 186.073288,171.687256 
	C186.097977,175.408966 185.091553,178.193512 182.672104,181.073807 
	C156.031647,212.788696 136.565048,248.153214 128.564026,289.197357 
	C127.260544,295.884064 126.714798,302.717133 125.458641,309.414978 
	C124.840836,312.709137 125.925117,313.389191 128.937485,313.463501 
	C140.931091,313.759399 152.918701,314.289398 164.910156,314.683685 
	C178.900803,315.143707 192.901108,315.391083 206.879974,316.080597 
	C211.155869,316.291504 212.399399,315.401764 212.368088,310.824768 
	C211.864258,237.163315 211.632690,163.500000 211.123428,89.838600 
	C211.090836,85.126030 212.488785,82.577278 216.689484,80.749985 
	C222.007614,78.436592 227.096634,75.596451 232.652740,72.988770 
z"/>
<path fill="#A76173" opacity="1.000000" stroke="none" 
	d="
M475.948090,66.441833 
	C476.034149,100.458504 476.001709,134.289780 476.000610,168.121048 
	C475.995667,320.446167 475.999664,472.771301 476.003510,625.562622 
	C475.936188,626.339539 475.754181,626.556396 475.243958,626.682251 
	C475.018555,440.138367 475.009796,253.591660 475.012024,66.594086 
	C475.313934,66.056007 475.587646,66.093758 475.948090,66.441833 
z"/>
<path fill="#566F8B" opacity="1.000000" stroke="none" 
	d="
M232.029861,619.392456 
	C233.975922,617.226318 232.952515,614.729675 232.953247,612.537903 
	C233.012985,433.340637 233.014008,254.143387 233.042999,74.478867 
	C234.629242,75.526344 233.970642,77.474159 233.970901,79.227325 
	C233.996506,259.194885 233.989700,439.162445 233.972260,619.603638 
	C233.368652,619.937622 232.777603,619.798035 232.029861,619.392456 
z"/>
<path fill="#263063" opacity="1.000000" stroke="none" 
	d="
M388.965820,57.870846 
	C391.222198,62.505299 393.335297,66.792198 395.448395,71.079102 
	C395.791290,71.052261 396.134216,71.025421 396.477112,70.998573 
	C396.974091,66.338356 397.588623,61.686398 397.916931,57.014328 
	C398.074036,54.779076 398.613525,53.778633 401.134155,53.916340 
	C403.903259,54.067623 403.877777,55.488163 403.651428,57.549732 
	C402.870850,64.658157 402.288330,71.789619 401.409302,78.884933 
	C401.216614,80.440338 402.240234,83.049553 399.620300,83.370483 
	C396.951416,83.697426 394.628876,83.107254 393.322937,79.907990 
	C391.199188,74.705269 388.466339,69.751198 385.045105,64.678314 
	C384.614136,68.953819 384.307068,73.247200 383.693481,77.496338 
	C383.435059,79.286049 384.406158,82.121971 380.584137,81.798752 
	C376.997955,81.495483 377.852631,79.209846 378.039337,77.171471 
	C378.676422,70.215706 379.311310,63.258087 380.112518,56.320278 
	C380.290558,54.778271 379.253815,52.243324 382.226868,52.124802 
	C384.407623,52.037861 386.615967,52.171761 387.492340,54.848873 
	C387.798859,55.785156 388.371460,56.634338 388.965820,57.870846 
z"/>
<path fill="#253062" opacity="1.000000" stroke="none" 
	d="
M313.319794,58.730736 
	C314.779053,64.925919 316.326202,70.707901 317.433655,76.572914 
	C318.512543,82.286880 315.621368,86.132553 309.512665,87.839005 
	C302.241028,89.870316 297.326477,88.283752 295.410370,82.549278 
	C293.364563,76.426521 292.071991,70.054474 290.368530,63.813644 
	C289.766998,61.609867 291.084778,61.284195 292.692261,60.975891 
	C294.328766,60.662010 295.850739,59.994617 296.408020,62.589817 
	C297.487671,67.617485 298.896057,72.573578 300.057617,77.584969 
	C300.979462,81.561920 302.991241,83.935410 307.406494,82.899055 
	C311.787262,81.870811 311.999786,78.805916 311.067413,75.153206 
	C309.795288,70.169189 308.643005,65.154655 307.423096,60.157169 
	C307.099213,58.830410 306.594696,57.285538 308.613464,57.116848 
	C310.196075,56.984604 312.600861,54.652931 313.319794,58.730736 
z"/>
<path fill="#242F61" opacity="1.000000" stroke="none" 
	d="
M353.086426,74.212601 
	C354.592743,72.629105 353.868256,69.380585 357.568115,70.475861 
	C360.548676,71.358208 360.826813,72.465645 359.689850,74.955238 
	C357.200775,80.405624 350.903564,83.007263 344.445129,81.122253 
	C336.686249,78.857666 332.701019,69.618530 335.556091,60.514301 
	C337.828217,53.268990 345.358307,49.480812 352.728485,51.821762 
	C354.862488,52.499580 356.774078,53.543957 357.981445,55.403984 
	C358.759003,56.601868 360.986053,58.197926 358.822449,59.465591 
	C357.423218,60.285416 355.074799,62.182877 353.263885,59.216545 
	C351.523987,56.366585 348.723724,56.078625 345.780121,56.937344 
	C342.607269,57.862953 341.486572,60.438404 341.138336,63.397881 
	C340.865753,65.714691 340.941681,68.046364 341.559692,70.338493 
	C343.184875,76.366295 347.318420,77.912849 353.086426,74.212601 
z"/>
<path fill="#2F3B68" opacity="1.000000" stroke="none" 
	d="
M373.467865,671.456055 
	C375.085236,666.687195 376.528442,662.269531 377.839111,657.812805 
	C378.382721,655.964417 378.792999,654.199097 381.298462,654.437805 
	C384.112671,654.705933 382.936279,656.907898 383.016846,658.283630 
	C383.318268,663.430847 383.449341,668.589478 383.551941,673.745728 
	C383.575348,674.922058 384.370087,676.782349 382.351715,676.960388 
	C379.836884,677.182251 380.692535,674.958557 380.600342,673.707214 
	C380.307343,669.730103 380.204346,665.739014 379.326965,661.534302 
	C377.931061,665.772095 376.511597,670.002319 375.152527,674.251892 
	C374.700317,675.665833 374.627441,677.344116 372.544769,677.299072 
	C370.682861,677.258850 370.727478,675.536438 370.284149,674.429016 
	C368.660919,670.374084 367.199707,666.254395 364.984589,662.408752 
	C364.984589,666.519653 365.014404,670.630920 364.966187,674.741211 
	C364.951965,675.954773 365.477417,677.709412 363.321716,677.623291 
	C361.547241,677.552490 362.008881,676.006104 361.968170,674.955688 
	C361.749298,669.303345 361.568115,663.649231 361.428497,657.994385 
	C361.398346,656.773010 360.871918,655.206909 362.964691,654.973572 
	C364.766937,654.772583 366.149078,655.008057 366.834167,657.065063 
	C368.249268,661.313965 369.763275,665.535156 371.428558,669.690796 
	C371.724426,670.429138 371.336060,672.260559 373.467865,671.456055 
z"/>
<path fill="#2C3865" opacity="1.000000" stroke="none" 
	d="
M487.167603,633.881958 
	C489.045929,638.704834 490.809448,643.175354 492.574890,647.645142 
	C493.000549,648.722839 493.715363,650.067810 492.363129,650.726624 
	C490.534790,651.617371 490.264557,649.905396 489.779358,648.681458 
	C488.148529,644.567810 486.481079,640.468750 484.085815,636.554199 
	C484.315369,641.280029 484.577057,646.004700 484.752625,650.732544 
	C484.798584,651.969604 485.313507,653.453979 483.565643,654.140869 
	C481.875916,654.804871 481.181732,653.501160 480.305908,652.564087 
	C477.554688,649.620667 475.562225,645.910767 471.287109,644.224243 
	C472.649078,647.806885 473.941589,651.418274 475.409576,654.956848 
	C475.943665,656.244263 476.143097,657.203308 474.620178,657.713379 
	C473.182281,658.195007 473.039124,656.955505 472.690247,656.076965 
	C470.549835,650.686768 468.393188,645.302612 466.310547,639.890015 
	C465.875397,638.759155 464.944336,637.449890 466.737610,636.489380 
	C468.421600,635.587524 469.764679,635.635376 471.074493,637.258423 
	C474.400635,641.380066 477.841949,645.408752 481.787720,650.133972 
	C481.787720,644.566528 481.724426,639.737061 481.820587,634.910828 
	C481.856232,633.121399 480.587311,630.742249 483.551025,629.924866 
	C486.900452,629.001099 485.917816,632.296509 487.167603,633.881958 
z"/>
<path fill="#303C68" opacity="1.000000" stroke="none" 
	d="
M320.117249,703.070068 
	C318.160034,703.857422 316.215942,703.982788 318.381531,706.605896 
	C320.113647,708.703979 320.980042,711.516846 322.329529,714.209717 
	C318.602509,715.412415 318.184296,712.649292 317.150726,710.789551 
	C315.804810,708.367798 315.296692,705.218018 312.311829,704.152466 
	C309.865417,703.279175 307.246613,702.865417 307.202301,706.895996 
	C307.189545,708.057617 307.044708,709.220398 306.914581,710.377502 
	C306.783508,711.543640 306.692657,712.890442 305.004120,712.628906 
	C303.644257,712.418152 303.796997,711.217163 303.907684,710.256165 
	C304.573425,704.475342 305.340942,698.705627 305.949097,692.919067 
	C306.156982,690.941284 307.325195,690.965210 308.736176,691.144653 
	C311.375092,691.480225 314.034760,691.706299 316.646790,692.188904 
	C323.047821,693.371704 324.493225,697.533264 320.117249,703.070068 
z"/>
<path fill="#263164" opacity="1.000000" stroke="none" 
	d="
M420.672394,77.438095 
	C422.114960,71.576424 423.547089,66.131851 424.739410,60.635269 
	C425.220795,58.415932 426.088226,58.156296 428.172394,58.675766 
	C430.319580,59.210941 431.367554,59.751095 430.710022,62.259682 
	C428.696320,69.942284 426.828949,77.664467 425.008820,85.395767 
	C424.544342,87.368576 423.888580,88.341118 421.651031,87.585320 
	C419.857056,86.979370 418.068024,86.755043 418.963684,84.081581 
	C419.644867,82.048470 420.042053,79.920219 420.672394,77.438095 
z"/>
<path fill="#2D3966" opacity="1.000000" stroke="none" 
	d="
M117.963120,558.638306 
	C115.566132,559.041138 114.488525,561.257874 112.698250,562.341675 
	C111.684273,562.955505 110.928665,563.280334 110.190964,562.198425 
	C109.589890,561.316895 110.141640,560.642578 110.816132,560.103027 
	C112.892342,558.442322 114.981865,556.798096 117.075592,555.159485 
	C118.731010,553.863892 120.342697,552.410400 118.694977,550.218323 
	C117.076248,548.064880 114.919586,548.425354 112.965981,549.833740 
	C110.813339,551.385620 108.781830,553.104675 106.675117,554.721680 
	C106.010979,555.231445 105.277290,555.664856 104.492409,554.868896 
	C103.494232,553.856628 104.059082,553.119568 104.917259,552.432922 
	C107.122025,550.668701 109.334618,548.914185 111.529480,547.137756 
	C113.080200,545.882812 114.186882,544.399597 112.675171,542.487061 
	C111.362389,540.826050 109.565926,540.559509 107.809448,541.771423 
	C105.488838,543.372559 103.290001,545.149109 101.005005,546.803528 
	C100.282219,547.326843 99.585052,548.426514 98.509407,547.284180 
	C97.264076,545.961670 98.318817,545.249084 99.252411,544.510925 
	C102.381287,542.037170 105.497528,539.546936 108.655159,537.110474 
	C109.249512,536.651855 110.575371,535.804016 110.699509,536.544250 
	C111.328354,540.294128 116.961647,540.544128 116.397263,544.975281 
	C116.303642,545.710327 116.137131,546.281494 117.128792,546.940857 
	C124.156761,551.614075 124.201889,552.879333 117.963120,558.638306 
z"/>
<path fill="#2B3764" opacity="1.000000" stroke="none" 
	d="
M194.988708,611.971802 
	C196.340393,608.694458 197.908493,607.466492 200.913223,609.879700 
	C202.831085,611.419983 205.220459,612.360046 207.221115,613.813354 
	C210.170105,615.955566 211.006271,618.827881 209.083664,622.073242 
	C207.302185,625.080505 204.784027,626.636719 201.161041,625.216492 
	C200.700150,625.035828 200.109344,625.048584 199.753983,624.757690 
	C195.343536,621.146606 191.828827,620.869446 189.796616,627.183472 
	C189.573029,627.878113 189.157990,629.171387 187.670273,628.441528 
	C186.118027,627.679993 186.506516,626.686035 187.118408,625.622559 
	C189.678085,621.173889 192.260834,616.738464 194.988708,611.971802 
z"/>
<path fill="#2D3966" opacity="1.000000" stroke="none" 
	d="
M390.650635,719.488281 
	C393.025909,718.440979 393.567017,716.938599 392.919586,714.893127 
	C385.233124,716.859375 380.750946,713.091431 381.943115,705.672302 
	C382.594971,701.615601 385.002808,699.971741 389.183533,699.733276 
	C394.041870,699.456116 395.832977,701.247681 395.588684,706.003235 
	C395.419434,709.298096 395.923035,712.623474 396.038208,715.938293 
	C396.129089,718.552246 394.836243,720.371155 392.448486,721.356812 
	C389.866089,722.422913 387.263580,722.520447 384.828857,720.971802 
	C383.843964,720.345337 382.779053,719.134827 383.372375,718.142090 
	C384.172974,716.802612 385.294769,717.688538 386.165222,718.604675 
	C387.297852,719.796814 388.730469,720.035828 390.650635,719.488281 
z"/>
<path fill="#2C3865" opacity="1.000000" stroke="none" 
	d="
M102.514099,534.574097 
	C100.889023,537.111816 99.546700,539.402771 98.041077,541.580811 
	C97.488640,542.380005 97.346268,544.293579 95.759262,543.424561 
	C94.101395,542.516846 94.314774,540.968628 95.519463,539.680664 
	C98.063423,536.960938 97.785400,534.723267 95.608963,531.552368 
	C93.313988,528.208801 91.054039,527.903198 87.851578,529.241699 
	C86.385956,529.854309 85.073357,529.672607 84.670540,528.068420 
	C84.210205,526.235229 86.137085,526.645935 86.933731,526.424438 
	C92.831596,524.784851 98.782104,523.334961 104.712746,521.812561 
	C105.965538,521.490967 107.082405,520.869629 108.256889,522.309692 
	C109.622437,523.984070 108.484520,525.077698 107.752510,526.284851 
	C106.120636,528.975952 104.410408,531.619568 102.514099,534.574097 
z"/>
<path fill="#2C3865" opacity="1.000000" stroke="none" 
	d="
M566.061157,593.914612 
	C561.024658,587.769409 560.515625,582.925293 564.276672,578.472290 
	C566.171997,576.228271 568.540466,574.686768 571.587769,574.842712 
	C573.267822,574.928650 576.028687,574.557373 575.855652,576.921875 
	C575.672791,579.420105 573.264587,577.754639 571.792175,577.810486 
	C570.810486,577.847717 569.709595,577.816650 568.879456,578.241150 
	C565.262695,580.090881 564.017883,583.122498 565.179260,586.983643 
	C566.546875,591.530090 572.039856,595.596680 575.616150,594.603699 
	C579.407410,593.550964 581.562866,591.127258 580.976624,586.876099 
	C580.819824,585.739136 579.666931,584.050659 581.836487,583.721863 
	C584.055542,583.385620 583.841797,585.361450 584.027649,586.701477 
	C584.631104,591.052124 582.457092,593.991516 578.982361,596.188110 
	C574.184753,599.220947 570.135132,597.425232 566.061157,593.914612 
z"/>
<path fill="#2D3966" opacity="1.000000" stroke="none" 
	d="
M255.082581,658.526123 
	C250.820496,660.741943 248.313019,656.555542 244.794266,656.394592 
	C243.381699,656.329956 244.113770,654.547852 244.478622,653.471558 
	C246.280014,648.158020 248.069778,642.840454 249.864304,637.524597 
	C250.267639,636.329773 250.350067,634.519104 252.269226,635.293152 
	C253.696350,635.868713 253.090424,637.315430 252.638504,638.328491 
	C251.511002,640.856018 251.244324,642.137146 254.977051,642.538818 
	C259.752960,643.052612 261.652588,647.874146 259.679779,653.061584 
	C258.856293,655.226807 257.699432,657.266235 255.082581,658.526123 
z"/>
<path fill="#2E3A67" opacity="1.000000" stroke="none" 
	d="
M388.609619,675.587402 
	C385.666626,670.748474 386.527252,668.361816 391.388214,666.907776 
	C392.022980,666.718018 392.719208,666.678406 393.308044,666.401489 
	C394.669281,665.761353 396.930847,666.563354 397.190582,664.151611 
	C397.281403,663.308167 396.845398,662.435364 395.977844,662.169617 
	C394.023193,661.570862 391.980347,661.317688 390.411011,662.970337 
	C389.441650,663.991211 388.623871,666.223816 387.187347,664.419434 
	C386.042908,662.981934 387.809753,661.421570 389.215210,660.492859 
	C394.610077,656.927734 399.807251,659.312134 400.490997,665.749512 
	C400.830505,668.945862 401.596893,672.146545 400.942841,675.398315 
	C396.856781,673.497498 392.996429,678.250549 388.609619,675.587402 
z"/>
<path fill="#2C3865" opacity="1.000000" stroke="none" 
	d="
M447.380737,652.985596 
	C442.552032,652.356873 440.940216,653.754456 441.649384,657.653259 
	C442.092621,660.090149 442.850647,662.476501 443.574554,664.852905 
	C443.950378,666.086731 444.205658,667.226624 442.635162,667.628540 
	C441.240204,667.985474 441.120422,666.796021 440.850586,665.840576 
	C439.229614,660.101318 437.561584,654.375122 435.986237,648.623535 
	C435.716278,647.638000 434.949066,646.244507 436.833191,645.864258 
	C438.229706,645.582397 438.426727,646.797852 438.735596,647.661926 
	C439.232880,649.052979 439.571930,650.500610 439.992554,651.976135 
	C447.600403,647.704407 449.841888,648.597839 452.097229,656.592102 
	C452.636963,658.505249 453.214783,660.407654 453.764252,662.318115 
	C454.057709,663.338318 454.142975,664.371704 452.878632,664.747192 
	C451.580261,665.132812 451.248657,664.213379 450.927307,663.164307 
	C449.911926,659.849487 448.802307,656.563477 447.380737,652.985596 
z"/>
<path fill="#343F6B" opacity="1.000000" stroke="none" 
	d="
M117.987793,559.007996 
	C119.852348,561.236938 120.745995,558.525452 121.935631,558.043396 
	C126.619263,556.145203 131.690628,558.558105 132.694641,563.475281 
	C133.289398,566.388000 132.111725,569.036194 129.913528,570.472900 
	C127.603012,571.983093 126.979935,568.691467 125.466179,567.745728 
	C124.784492,567.319885 124.350876,566.516724 123.717697,565.989136 
	C122.613617,565.069214 121.985596,563.112427 120.343887,563.464905 
	C119.451881,563.656311 119.009918,565.222656 118.963814,566.465332 
	C118.887764,568.515442 119.744347,569.970154 121.571671,570.857117 
	C121.862694,570.998291 122.206703,571.038818 122.530907,571.101562 
	C123.881836,571.362732 125.567314,570.306091 126.513199,572.180054 
	C126.926018,572.997986 126.503960,573.546143 125.907234,573.735168 
	C124.302185,574.243774 122.677002,574.289917 121.062851,573.571838 
	C116.684067,571.623962 114.968697,566.652100 117.240532,562.411560 
	C117.772316,561.418884 118.902397,560.739685 118.402115,559.198975 
	C117.989418,558.976135 118.008865,559.017639 117.987793,559.007996 
z"/>
<path fill="#303C69" opacity="1.000000" stroke="none" 
	d="
M425.992340,670.332886 
	C423.799530,671.115540 422.128265,672.582886 419.891632,672.823120 
	C417.328217,673.098572 415.185852,672.333008 414.240356,669.801636 
	C413.283508,667.239807 414.387848,665.232178 416.666260,663.951355 
	C417.805695,663.310730 419.168396,663.077026 420.341705,662.484253 
	C421.582458,661.857483 423.596527,662.174133 423.779114,660.204834 
	C423.836334,659.587891 423.132263,658.568115 422.521362,658.286255 
	C420.959930,657.565857 419.287628,657.736877 417.735870,658.545532 
	C417.449860,658.694519 417.230835,658.969299 416.974487,659.178223 
	C415.949646,660.013611 416.166779,662.403320 413.931885,661.666260 
	C413.597870,661.556152 413.182800,660.852844 413.249023,660.509766 
	C413.577698,658.807373 414.547363,657.538757 416.063843,656.614807 
	C421.696167,653.183289 425.907318,655.072266 427.150330,661.584045 
	C427.615356,664.020081 428.223633,666.429138 428.780701,668.847229 
	C429.394684,671.512207 427.957001,671.185913 425.992340,670.332886 
z"/>
<path fill="#2C3865" opacity="1.000000" stroke="none" 
	d="
M152.035370,597.364929 
	C155.187836,595.255127 158.207581,595.695190 161.209259,597.789490 
	C162.359329,598.591919 163.633591,599.847290 165.243607,599.078735 
	C166.270721,598.588318 166.289780,597.400574 165.938904,596.429504 
	C165.262039,594.556213 163.766846,593.487976 161.878448,593.174133 
	C161.148010,593.052795 160.314789,593.729980 159.524307,593.740662 
	C158.676102,593.752014 157.849213,593.181519 157.903488,592.266174 
	C157.931366,591.796204 158.605576,591.137817 159.123398,590.960266 
	C162.653229,589.749939 165.225174,591.595459 167.546219,593.878540 
	C169.826965,596.121948 169.704361,598.538879 167.800781,601.010864 
	C165.593353,603.877380 163.438416,606.784302 161.059906,609.940125 
	C159.605576,607.689331 157.532166,606.494629 155.130997,605.423401 
	C151.992294,604.023193 150.278198,601.360596 152.035370,597.364929 
z"/>
<path fill="#2E3A67" opacity="1.000000" stroke="none" 
	d="
M228.812134,632.262695 
	C230.055191,633.546204 230.346359,634.856079 230.446808,636.176941 
	C230.822571,641.118347 229.516541,641.995056 224.922455,639.958008 
	C224.016739,639.556396 223.134857,639.086365 222.201614,638.765076 
	C220.870651,638.306763 219.542206,636.686279 218.240417,637.632324 
	C217.248123,638.353333 217.510513,640.116028 218.054871,641.377808 
	C218.762863,643.018738 220.032089,644.001221 221.888168,644.039001 
	C222.378128,644.049011 222.908264,644.049072 223.354584,643.880493 
	C224.805801,643.332520 226.921158,641.741760 227.277390,644.250793 
	C227.519089,645.953308 224.828033,646.778809 223.047440,646.755310 
	C219.499557,646.708496 216.337509,645.237915 215.187256,641.754211 
	C213.814896,637.597839 215.272583,633.741760 218.680862,631.125122 
	C221.996368,628.579773 225.491959,629.141418 228.812134,632.262695 
z"/>
<path fill="#2C3865" opacity="1.000000" stroke="none" 
	d="
M630.413330,527.380676 
	C629.299133,526.577209 628.518555,525.958191 627.681641,525.428162 
	C625.819214,524.248535 623.888306,523.808167 622.502930,525.986877 
	C621.320251,527.846924 621.410156,529.889832 623.191284,531.375183 
	C625.220459,533.067383 627.457397,534.508545 629.574768,536.097778 
	C630.453491,536.757324 631.793518,537.367126 630.757812,538.793335 
	C629.971130,539.876648 629.045471,539.310242 628.192993,538.699829 
	C623.209351,535.131165 618.212585,531.581055 613.236267,528.002197 
	C612.445862,527.433777 611.501526,526.807556 612.414307,525.637695 
	C613.244751,524.573364 614.118042,524.953918 614.938171,525.678528 
	C617.528381,527.967346 619.421509,528.921448 620.748230,524.291199 
	C621.436584,521.888733 624.126465,520.294250 626.839600,521.786316 
	C630.157715,523.611145 633.205322,525.930847 636.349182,528.067017 
	C637.103577,528.579590 637.451782,529.346863 636.883301,530.183533 
	C636.092407,531.347473 635.239258,530.831604 634.373779,530.188232 
	C633.177490,529.298828 631.940796,528.463806 630.413330,527.380676 
z"/>
<path fill="#2C3865" opacity="1.000000" stroke="none" 
	d="
M578.683472,570.207703 
	C580.155334,571.460876 580.928467,574.218384 582.670166,570.453491 
	C584.699402,566.066833 588.412109,565.714600 591.896973,568.974792 
	C593.711426,570.672241 595.444092,572.476379 597.045593,574.374207 
	C597.843384,575.319580 600.155273,576.140320 598.257935,577.844360 
	C596.723877,579.222168 595.989197,577.248413 595.155640,576.476990 
	C593.454590,574.902771 591.944397,573.124390 590.312378,571.472900 
	C588.750000,569.891846 586.998291,569.104065 585.131165,570.945923 
	C583.477661,572.576965 583.361084,574.557251 584.778076,576.323792 
	C586.537720,578.517456 588.537292,580.519836 590.453125,582.586548 
	C591.175537,583.365784 591.811829,584.135620 590.772095,585.092163 
	C589.733154,586.047974 589.039429,585.314819 588.323181,584.557678 
	C584.219360,580.219421 580.091797,575.903625 575.993469,571.560303 
	C575.245911,570.768066 573.949524,569.927673 575.319702,568.729736 
	C576.989563,567.269836 577.458191,569.365723 578.683472,570.207703 
z"/>
<path fill="#2B3764" opacity="1.000000" stroke="none" 
	d="
M319.503937,674.425537 
	C316.763458,669.269470 318.162811,666.486755 323.319397,665.999573 
	C323.978821,665.937256 324.661194,666.054443 325.309113,665.946228 
	C326.829346,665.692139 328.784943,666.778198 329.744690,664.781860 
	C330.224426,663.783936 329.633240,662.749207 328.756042,662.210754 
	C326.981262,661.121643 325.089935,660.592102 323.180237,661.996094 
	C322.124695,662.772095 320.970459,664.942200 319.837067,662.566833 
	C319.100159,661.022339 320.982025,659.912598 322.309906,659.447266 
	C325.235962,658.422119 328.249176,658.500488 330.931763,660.218933 
	C333.520081,661.876770 333.011444,664.477905 332.581573,666.972778 
	C332.553345,667.136475 332.509308,667.297791 332.487946,667.462219 
	C332.111877,670.359131 331.738281,673.256287 331.364136,676.153442 
	C327.765503,673.690308 323.396851,677.258057 319.503937,674.425537 
z"/>
<path fill="#2D3966" opacity="1.000000" stroke="none" 
	d="
M296.110962,666.007935 
	C298.021240,666.234741 298.572906,666.950012 297.429016,668.286682 
	C295.429504,670.623230 292.822815,670.730591 290.112396,670.092773 
	C286.066986,669.140808 283.944244,665.790833 284.503143,661.423462 
	C285.155762,656.323608 288.647247,652.763184 292.862274,653.288818 
	C296.952393,653.798889 299.485748,656.140259 299.820007,660.465515 
	C300.032990,663.220886 299.268555,664.705444 296.133087,663.611145 
	C294.731018,663.121887 293.230286,662.916870 291.776428,662.574097 
	C290.357208,662.239441 288.794312,661.336609 287.583893,662.535950 
	C287.172485,662.943604 287.614624,664.443115 287.957214,665.331726 
	C288.612946,667.032654 290.008698,667.812866 291.824402,667.980225 
	C293.547821,668.139221 294.547089,666.954407 296.110962,666.007935 
z"/>
<path fill="#2F3B68" opacity="1.000000" stroke="none" 
	d="
M329.681641,706.392944 
	C331.850616,705.744507 334.232544,707.090149 335.352722,704.785217 
	C335.576569,704.324585 334.971985,703.018433 334.409912,702.698547 
	C332.429352,701.571045 330.303436,701.241882 328.555481,703.182556 
	C327.607208,704.235352 326.453613,704.635376 325.692657,703.514709 
	C325.212433,702.807434 326.053894,701.640747 326.895538,701.003906 
	C329.743988,698.848633 332.891449,699.158875 335.914307,700.303467 
	C338.653595,701.340637 338.449677,703.886414 338.244049,706.268738 
	C338.186829,706.931763 338.290131,707.641663 338.088043,708.253479 
	C337.260345,710.759705 339.283325,715.638794 336.867035,715.451111 
	C334.147766,715.239807 331.621368,716.295166 329.030426,715.790039 
	C326.571259,715.310669 324.393402,714.252991 324.228821,711.507263 
	C324.030212,708.193909 326.357635,706.919983 329.681641,706.392944 
z"/>
<path fill="#2F3A67" opacity="1.000000" stroke="none" 
	d="
M372.287933,700.601196 
	C377.275909,700.293884 379.541565,702.340637 379.125793,707.065552 
	C379.082428,707.558716 379.260437,708.095764 379.128296,708.552490 
	C378.379425,711.140686 380.847046,715.949646 378.816284,715.872986 
	C375.988037,715.766296 373.720032,717.181885 371.116577,717.037415 
	C368.606415,716.898132 366.424164,716.299316 365.854370,713.500671 
	C365.248779,710.526245 366.786530,708.773560 369.546173,707.976624 
	C370.659210,707.655212 371.830475,707.534851 372.942444,707.210510 
	C374.205658,706.842102 376.370239,707.460510 376.005280,705.028015 
	C375.667633,702.777222 373.761505,702.963196 372.094543,702.991150 
	C371.605103,702.999329 371.120361,703.197388 370.629333,703.220581 
	C368.929871,703.300781 368.078949,708.033997 366.504974,704.894592 
	C365.383636,702.657959 368.780975,701.079224 371.414093,700.712524 
	C371.578461,700.689636 371.742310,700.663086 372.287933,700.601196 
z"/>
<path fill="#313D69" opacity="1.000000" stroke="none" 
	d="
M504.855957,627.003845 
	C506.763428,627.189270 508.652252,627.663879 508.355774,629.366882 
	C508.053864,631.101135 506.328064,630.276489 505.052704,629.917053 
	C503.698242,629.535339 502.437683,629.952332 501.354645,630.861145 
	C500.709259,631.402771 500.059753,631.992065 500.212433,632.915833 
	C500.433258,634.251526 501.571747,634.236206 502.516907,634.129822 
	C504.157776,633.945190 505.781555,633.593384 507.405396,633.275208 
	C509.762054,632.813538 511.836700,633.316467 512.859558,635.595764 
	C513.817749,637.731262 513.400940,639.931946 511.581848,641.505615 
	C508.967712,643.767090 506.078918,645.276611 502.573029,643.314880 
	C501.867767,642.920288 500.924072,642.418030 501.238831,641.509827 
	C501.594330,640.484131 502.496490,640.119446 503.653107,640.633301 
	C504.534393,641.024841 505.555847,641.577576 506.417328,641.441345 
	C508.420898,641.124451 510.621002,640.341003 510.218567,637.798157 
	C509.815735,635.252441 507.758972,636.401489 506.218353,636.672424 
	C505.239868,636.844543 504.259613,637.014771 503.273987,637.136047 
	C500.808075,637.439392 498.550659,637.249268 497.678711,634.363342 
	C496.864532,631.668579 498.216125,629.844727 500.355927,628.585205 
	C501.607758,627.848450 503.099091,627.518677 504.855957,627.003845 
z"/>
<path fill="#333E6A" opacity="1.000000" stroke="none" 
	d="
M269.668518,660.711670 
	C267.578217,663.309204 265.802734,665.710388 263.811157,667.916504 
	C262.751434,669.090454 261.144379,669.444519 259.696991,668.603638 
	C258.323975,667.805908 257.734467,666.684387 259.802521,665.940186 
	C260.385803,665.730408 261.179626,666.094177 261.754333,665.874390 
	C263.937439,665.039490 264.553741,663.307800 264.332428,661.087830 
	C263.921173,656.962708 263.540039,652.833069 263.256989,648.697754 
	C263.191833,647.746338 262.355713,646.139954 264.336151,646.078308 
	C265.871002,646.030579 266.050934,647.276306 266.153473,648.512817 
	C266.425995,651.798462 266.756317,655.079285 267.164062,659.434814 
	C269.647430,656.046753 271.630859,653.341309 273.613617,650.635498 
	C274.308472,649.687256 275.064087,648.497864 276.370361,649.513550 
	C277.891724,650.696411 276.241852,651.571472 275.706451,652.363525 
	C273.850708,655.109070 271.843262,657.752075 269.668518,660.711670 
z"/>
<path fill="#323D6A" opacity="1.000000" stroke="none" 
	d="
M349.786499,666.351562 
	C349.536499,669.423218 349.325104,672.075073 349.054413,674.720886 
	C348.946503,675.775940 349.414886,677.326111 347.605042,677.322937 
	C345.409821,677.319092 346.055176,675.582214 346.123566,674.387695 
	C346.256500,672.065674 346.591492,669.755676 346.750305,667.434448 
	C346.896301,665.301147 346.566467,663.358948 343.919922,662.999084 
	C341.265503,662.638062 339.718842,664.084290 339.322479,666.479065 
	C338.862885,669.255859 338.845337,672.103943 338.578308,674.915649 
	C338.500092,675.739319 338.241974,676.643616 337.186829,676.651672 
	C335.803314,676.662231 335.680969,675.638916 335.738281,674.574463 
	C335.890259,671.751648 335.777863,668.877197 336.301208,666.124207 
	C336.680573,664.128662 335.744476,659.899780 338.227264,660.594055 
	C341.542999,661.521301 344.976593,658.436462 347.889374,661.503723 
	C349.132935,662.813232 349.709930,664.218018 349.786499,666.351562 
z"/>
<path fill="#2E3A67" opacity="1.000000" stroke="none" 
	d="
M237.325409,642.289673 
	C238.291107,643.047852 238.976440,643.519714 239.607376,644.055542 
	C241.494827,645.658630 243.801361,647.123901 242.542389,650.183044 
	C241.401260,652.955811 239.051270,653.625061 236.386337,653.127869 
	C233.359909,652.563171 230.588318,651.434387 229.927902,647.908813 
	C229.764191,647.034912 229.404770,645.725525 230.702606,645.449036 
	C231.807755,645.213562 232.533157,646.113647 232.677658,647.212219 
	C232.901352,648.913086 233.967682,649.807800 235.424164,650.433350 
	C236.927994,651.079041 238.419037,651.248474 239.378372,649.686157 
	C240.362534,648.083496 238.821411,647.341614 237.905640,646.516052 
	C236.925430,645.632324 235.797012,644.915527 234.770309,644.080322 
	C232.709381,642.403748 231.936432,640.277893 233.447937,637.971069 
	C235.084442,635.473267 237.591339,635.540039 240.105804,636.500305 
	C242.524109,637.424011 244.564697,638.789917 244.863037,641.664734 
	C244.934647,642.354736 244.572617,642.925415 243.735382,642.983704 
	C243.019424,643.033508 242.263306,642.849243 242.139160,642.156250 
	C241.806488,640.299316 240.777008,639.249878 239.002716,638.726746 
	C237.985855,638.426941 236.973938,638.190247 236.274521,639.106384 
	C235.377884,640.280823 235.996826,641.251221 237.325409,642.289673 
z"/>
<path fill="#2C3865" opacity="1.000000" stroke="none" 
	d="
M546.848145,618.569519 
	C545.273621,623.003418 542.326660,625.478577 538.058533,624.778748 
	C533.709534,624.065613 531.412109,620.670349 530.663269,616.415344 
	C530.027283,612.801392 531.861145,610.332397 534.902405,608.756165 
	C540.491394,605.859558 545.965515,610.194641 546.848145,618.569519 
z"/>
<path fill="#2D3966" opacity="1.000000" stroke="none" 
	d="
M514.318176,621.190186 
	C515.591003,620.670959 516.501404,620.179749 517.461609,620.045898 
	C519.137085,619.812378 521.433960,619.963562 521.458496,621.810730 
	C521.490723,624.226624 519.338623,622.862000 518.013428,622.780273 
	C516.208191,622.668945 514.714905,623.311768 513.925415,624.988647 
	C513.703003,625.461182 513.793396,626.445129 514.137024,626.755432 
	C515.469421,627.958801 516.972351,626.954407 518.391541,626.774963 
	C519.533264,626.630615 520.634399,626.185669 521.773987,625.999146 
	C523.528687,625.712097 525.075684,626.102966 526.134583,627.688721 
	C527.260986,629.375610 527.380920,631.126709 526.259644,632.822632 
	C524.155029,636.005920 521.256775,637.682434 517.384277,636.779663 
	C516.419495,636.554749 514.819214,636.032837 515.181335,634.583008 
	C515.543152,633.134460 516.758667,633.316650 517.983704,633.896057 
	C518.686218,634.228210 519.625977,634.389709 520.374268,634.230469 
	C522.429199,633.793091 524.515564,632.836426 523.912903,630.346985 
	C523.333740,627.954590 521.269409,629.205811 519.748047,629.466980 
	C519.262207,629.550354 518.807983,629.815430 518.322266,629.901367 
	C515.704285,630.364502 512.809021,631.252808 511.308594,628.085815 
	C509.902771,625.118469 511.623627,623.037537 514.318176,621.190186 
z"/>
<path fill="#2E3A67" opacity="1.000000" stroke="none" 
	d="
M551.089355,615.839722 
	C549.535339,613.660767 548.174255,611.777710 546.827209,609.884644 
	C542.267029,603.476074 542.275269,603.351196 548.706238,598.967224 
	C550.805603,597.536072 553.254761,596.987000 555.071350,599.000671 
	C557.612366,601.817261 559.728638,605.021057 561.971436,608.099548 
	C562.465881,608.778137 562.633911,609.541565 561.718872,610.226440 
	C560.494812,611.142578 559.982788,610.282043 559.398987,609.468750 
	C557.850525,607.311707 556.291748,605.161987 554.763550,602.990723 
	C553.475708,601.160950 551.865540,600.057861 549.731873,601.423950 
	C547.549316,602.821289 547.288879,604.960632 548.563354,607.079773 
	C549.928345,609.349365 551.642029,611.406860 553.056091,613.649902 
	C554.383301,615.755127 554.298645,615.808533 551.089355,615.839722 
z"/>
<path fill="#2F3A67" opacity="1.000000" stroke="none" 
	d="
M596.917114,569.218262 
	C595.015686,567.563782 593.385071,566.155579 591.767090,564.733093 
	C590.905701,563.975708 589.756958,563.244080 591.015747,561.945740 
	C592.037476,560.891907 592.822510,561.815002 593.540894,562.417297 
	C595.572144,564.120178 597.544678,565.892822 599.565369,567.608521 
	C601.245911,569.035461 602.995117,569.753723 604.740906,567.715088 
	C606.264709,565.935730 606.321411,564.006470 604.694824,562.358459 
	C602.721252,560.358887 600.518250,558.587036 598.435913,556.693054 
	C597.730042,556.051025 596.738342,555.439758 597.675537,554.267639 
	C598.553772,553.169006 599.398193,553.702942 600.184204,554.378601 
	C603.325989,557.079163 606.468628,559.779358 609.567444,562.528809 
	C610.004517,562.916565 610.200928,563.575562 610.508789,564.109009 
	C607.143860,565.636597 607.530518,570.421265 603.835999,571.718750 
	C600.958679,572.729248 599.121887,571.044128 596.917114,569.218262 
z"/>
<path fill="#2D3866" opacity="1.000000" stroke="none" 
	d="
M177.049347,601.961670 
	C183.536423,604.643677 184.305328,606.903259 180.798050,612.076233 
	C179.400833,614.137024 177.927887,616.147339 176.455719,618.156006 
	C175.788666,619.066223 175.186340,620.292725 173.740234,619.101196 
	C172.509613,618.087341 173.556137,617.302307 174.043137,616.577209 
	C175.615738,614.235779 177.303436,611.971985 178.901886,609.647339 
	C180.111267,607.888489 180.081451,606.246338 178.218491,604.910278 
	C176.514420,603.688171 174.698380,603.542114 173.290878,605.155701 
	C171.335541,607.397278 169.646622,609.870056 167.817795,612.223816 
	C167.226685,612.984619 166.632507,613.978210 165.446213,613.096130 
	C164.318222,612.257446 164.918594,611.379944 165.498291,610.552612 
	C167.308594,607.969299 169.318298,605.503296 170.897614,602.786621 
	C172.601501,599.855652 174.235458,598.820007 177.049347,601.961670 
z"/>
<path fill="#2F3A67" opacity="1.000000" stroke="none" 
	d="
M152.003265,596.968750 
	C150.191422,596.447449 148.635010,598.120361 146.709183,597.537354 
	C143.133057,596.454773 140.910629,594.298767 140.781967,590.467346 
	C140.645493,586.403259 145.023727,581.359436 149.002151,581.051819 
	C152.805817,580.757629 155.381897,582.786865 156.743790,586.149353 
	C157.330902,587.598938 157.722305,590.036499 155.797043,590.473877 
	C153.577850,590.977966 154.274704,588.711121 154.129074,587.342407 
	C153.806061,584.306213 151.673569,583.275696 149.140076,584.041382 
	C145.683075,585.086182 143.370483,587.775818 143.567291,591.425659 
	C143.704132,593.963745 145.785126,595.633789 148.607605,594.715027 
	C150.446976,594.116272 151.892334,593.387695 151.851624,596.677307 
	C151.931900,597.052246 151.971039,596.988098 152.003265,596.968750 
z"/>
<path fill="#313D69" opacity="1.000000" stroke="none" 
	d="
M361.790466,716.831848 
	C358.395325,714.472473 360.490601,711.225220 360.115509,708.361389 
	C359.816711,706.079590 360.461334,703.262390 357.038757,703.220764 
	C353.839111,703.181824 352.984406,705.526672 352.956024,708.339050 
	C352.932556,710.664856 352.845642,712.992493 352.693481,715.313232 
	C352.630707,716.270752 351.942871,716.719727 350.971985,716.640747 
	C350.050751,716.565796 349.992462,715.799500 349.996338,715.184326 
	C350.022614,711.027710 350.112122,706.871460 350.167572,702.714966 
	C350.183929,701.487000 350.717316,700.872681 351.991821,701.069885 
	C352.149048,701.094177 352.292542,701.235596 352.447144,701.244995 
	C363.373016,701.910278 363.378204,701.909912 362.881836,713.376160 
	C362.832581,714.513367 363.083466,715.727661 361.790466,716.831848 
z"/>
<path fill="#2A3663" opacity="1.000000" stroke="none" 
	d="
M612.670288,535.631531 
	C614.103027,534.674194 615.254517,533.985657 616.659058,534.126770 
	C617.643005,534.225525 618.876038,534.318115 618.944763,535.548035 
	C619.013977,536.785522 617.947571,537.051941 616.859497,537.023804 
	C613.326477,536.932739 612.079163,538.993835 612.609558,542.095215 
	C613.115173,545.051758 618.101685,548.348511 620.583191,547.461914 
	C623.259277,546.505737 624.735962,544.696106 623.208618,541.709778 
	C622.691101,540.697937 622.563660,539.648682 623.659485,539.196655 
	C625.270996,538.532043 625.610168,540.109009 625.923645,541.079224 
	C626.745728,543.623962 626.264343,546.007568 624.394226,547.987915 
	C622.554871,549.935730 620.309021,550.678467 617.640259,550.121338 
	C610.399475,548.609802 607.899475,541.877563 612.670288,535.631531 
z"/>
<path fill="#313D69" opacity="1.000000" stroke="none" 
	d="
M279.992676,662.123535 
	C279.959808,663.161194 279.807648,663.902039 280.081451,664.415833 
	C280.564453,665.322205 282.306671,665.542725 281.612762,667.087952 
	C281.330017,667.717468 280.667450,668.016724 279.944366,667.766724 
	C278.540924,667.281677 276.814209,666.900452 276.733307,665.118530 
	C276.660553,663.515076 277.079681,661.867798 277.428223,660.271851 
	C277.920013,658.020508 279.681061,655.225281 278.897278,653.674500 
	C276.774750,649.475098 281.911987,649.210510 282.062775,646.494019 
	C282.069458,646.374146 282.946838,646.302673 283.418640,646.208618 
	C283.857208,648.706421 284.295776,651.204285 284.734375,653.702087 
	C279.789185,654.403870 281.792389,659.149719 279.992676,662.123535 
z"/>
<path fill="#2C3865" opacity="1.000000" stroke="none" 
	d="
M433.533569,657.739258 
	C434.903015,661.140747 433.492401,665.516968 438.340088,666.800476 
	C439.342926,667.065979 438.905029,668.585876 437.672943,668.881836 
	C435.647552,669.368347 433.867126,669.399048 432.776489,666.940796 
	C431.069550,663.093323 432.422607,657.996216 428.025391,655.261841 
	C429.728180,653.473755 428.432983,650.941345 429.580505,649.036560 
	C429.779633,648.705994 430.422852,648.310242 430.692841,648.408203 
	C432.707947,649.139038 431.024323,652.269958 433.182983,652.701599 
	C437.400360,653.544922 434.988464,654.386719 433.374023,655.518982 
	C433.089172,655.718750 433.379791,656.739075 433.533569,657.739258 
z"/>
<path fill="#35406C" opacity="1.000000" stroke="none" 
	d="
M347.111053,700.995483 
	C344.338379,703.951416 345.059174,707.725586 344.990997,711.287598 
	C344.975861,712.075806 344.979675,713.116028 345.438538,713.605103 
	C346.201263,714.418030 348.400635,714.205139 347.198822,716.244690 
	C346.718109,717.060547 345.708649,716.886841 344.912628,716.688782 
	C343.355774,716.301514 342.103546,715.450745 342.074005,713.689819 
	C342.021179,710.536926 343.029694,706.999817 341.918335,704.317932 
	C340.298096,700.407898 342.807556,698.509888 343.841064,695.743958 
	C346.677032,696.728638 343.483002,700.460510 347.111053,700.995483 
z"/>
<path fill="#303C68" opacity="1.000000" stroke="none" 
	d="
M406.178406,674.447449 
	C403.996979,669.831909 404.355469,664.940430 403.514465,660.242310 
	C403.320007,659.155884 403.889709,657.675171 404.843719,658.277954 
	C407.389923,659.886658 409.440247,655.207397 411.734039,657.991150 
	C412.287048,658.662292 412.144653,659.897522 411.214935,660.023804 
	C404.841858,660.889343 407.568878,665.427063 407.467865,668.886475 
	C407.412506,670.783386 409.595184,673.091614 406.178406,674.447449 
z"/>
<path fill="#38436E" opacity="1.000000" stroke="none" 
	d="
M142.831421,574.641724 
	C137.184509,570.535217 133.830917,574.584534 130.338074,578.580200 
	C129.543381,579.489380 128.710709,581.792725 126.937851,580.039978 
	C125.205544,578.327332 127.526093,577.500061 128.324646,576.549011 
	C130.125595,574.404053 132.079269,572.371094 134.117615,570.448242 
	C135.207520,569.420166 137.040451,566.856262 137.675629,568.111389 
	C138.954758,570.638916 144.034515,569.994568 142.831421,574.641724 
z"/>
<path fill="#2F3A67" opacity="1.000000" stroke="none" 
	d="
M205.952179,633.746216 
	C207.008148,631.638062 207.940018,629.872986 208.850571,628.096863 
	C211.168182,623.576111 212.844574,623.114441 217.265427,625.897583 
	C218.020813,626.373169 219.145599,626.881042 218.442841,628.140564 
	C217.999405,628.935242 217.219421,629.366394 216.362000,628.825378 
	C212.797684,626.576416 211.676987,629.503296 210.283386,631.700378 
	C209.485260,632.958801 209.030762,634.444702 208.175873,635.654663 
	C207.392593,636.763306 207.561752,639.724670 205.141785,638.243408 
	C203.028000,636.949524 205.501221,635.491943 205.952179,633.746216 
z"/>
<path fill="#2D3866" opacity="1.000000" stroke="none" 
	d="
M311.910889,658.058472 
	C304.876923,658.967102 305.159241,664.666504 304.167542,669.473022 
	C303.924744,670.649780 304.358612,672.549805 302.195435,672.111755 
	C300.038422,671.674927 301.234131,670.013855 301.393250,668.884338 
	C301.694458,666.746399 302.179108,664.633911 302.598450,662.513062 
	C304.040710,655.218445 304.084808,655.196350 311.910889,658.058472 
z"/>
<path fill="#2F3B68" opacity="1.000000" stroke="none" 
	d="
M412.684814,698.273560 
	C407.362762,700.801270 408.277588,705.103210 408.902985,709.481812 
	C409.101440,710.871399 410.348206,713.447632 408.153992,713.704895 
	C405.601074,714.004211 406.498413,711.114929 406.115265,709.572266 
	C405.760712,708.145142 405.844238,706.615417 405.631256,705.145813 
	C404.602966,698.051147 404.590546,698.052979 412.684814,698.273560 
z"/>
<path fill="#303C68" opacity="1.000000" stroke="none" 
	d="
M602.145020,549.148438 
	C604.477783,548.278381 604.282471,545.909668 605.575867,544.710144 
	C606.169739,544.159424 606.877991,543.467712 607.727051,544.099915 
	C608.174500,544.433167 608.727295,545.468750 608.599609,545.608521 
	C604.300476,550.310913 609.160278,552.068176 611.393311,554.759644 
	C612.625000,556.244202 616.401550,557.148193 614.594055,559.314087 
	C612.652466,561.640686 611.036926,558.132568 609.695557,556.937622 
	C607.022339,554.556213 603.602661,552.883850 602.145020,549.148438 
z"/>
<path fill="#343F6B" opacity="1.000000" stroke="none" 
	d="
M312.366699,658.679688 
	C311.978271,658.523132 311.936371,658.390686 311.934540,658.321289 
	C315.398895,657.200256 316.579651,658.224121 315.724792,661.919678 
	C314.979431,665.141663 314.786926,668.490051 314.310944,671.776855 
	C314.154938,672.854248 314.312622,674.358521 312.481384,673.988586 
	C310.732422,673.635193 311.382568,672.286682 311.494293,671.193604 
	C311.915466,667.074585 312.334991,662.955322 312.366699,658.679688 
z"/>
<path fill="#2F3A67" opacity="1.000000" stroke="none" 
	d="
M491.124878,634.265625 
	C492.181458,632.149292 493.230377,632.023438 494.157501,634.071411 
	C495.867554,637.849060 497.540527,641.643860 499.292755,645.401794 
	C499.786652,646.461060 499.888672,647.290588 498.673431,647.805359 
	C497.287750,648.392273 496.976013,647.251953 496.574097,646.381653 
	C494.765717,642.465942 492.983826,638.537964 491.124878,634.265625 
z"/>
<path fill="#38436E" opacity="1.000000" stroke="none" 
	d="
M413.374023,698.892761 
	C412.956329,698.865723 412.932678,698.537720 412.940369,698.455627 
	C415.310272,696.686462 416.944519,696.271973 417.258026,700.135010 
	C417.497681,703.087891 418.443329,705.976929 418.867279,708.924255 
	C419.053558,710.219299 420.078705,712.303894 417.837219,712.593445 
	C416.126007,712.814636 416.295349,710.812683 416.031525,709.591980 
	C415.263672,706.039185 414.535461,702.477783 413.374023,698.892761 
z"/>
<path fill="#2D3866" opacity="1.000000" stroke="none" 
	d="
M532.096375,625.776978 
	C532.659851,627.327820 534.772583,628.546814 532.734375,629.811523 
	C530.984741,630.897217 530.612244,628.886475 530.008545,627.890015 
	C528.128540,624.786499 526.364746,621.612854 524.532349,618.480164 
	C523.915588,617.425781 523.294128,616.387207 524.812988,615.598816 
	C526.163391,614.897827 526.503662,616.156372 526.953674,616.901489 
	C528.659241,619.725403 530.285034,622.597534 532.096375,625.776978 
z"/>
<path fill="#303C69" opacity="1.000000" stroke="none" 
	d="
M456.970032,647.979004 
	C458.139313,652.199341 459.201355,656.033447 460.274017,659.864624 
	C460.570648,660.924133 461.464539,662.135071 459.812561,662.795410 
	C458.089508,663.484192 457.973755,662.062561 457.656525,660.958740 
	C456.557983,657.136047 455.386414,653.332947 454.365967,649.489624 
	C453.728851,647.090088 454.520874,646.231934 456.970032,647.979004 
z"/>
<path fill="#333E6A" opacity="1.000000" stroke="none" 
	d="
M399.210052,699.154968 
	C403.099152,703.463379 401.507385,708.926208 402.565216,713.847473 
	C402.605194,714.033569 401.607819,714.628235 401.044739,714.715576 
	C400.164062,714.852112 400.021179,714.011780 399.959839,713.391235 
	C399.495331,708.690674 398.002777,704.071655 399.210052,699.154968 
z"/>
<path fill="#2B3764" opacity="1.000000" stroke="none" 
	d="
M142.967545,575.014648 
	C143.923508,575.814209 145.692993,574.199707 146.229736,576.084106 
	C146.624969,577.471619 145.348984,578.103271 144.616898,578.895630 
	C142.261703,581.444946 139.864838,583.959229 137.395767,586.397644 
	C136.707870,587.076965 136.135101,588.715332 134.679916,587.435791 
	C132.976807,585.938232 134.732712,585.130676 135.489182,584.285889 
	C138.133041,581.333252 140.868164,578.462341 143.299194,575.267761 
	C143.029755,574.975098 142.973572,574.986572 142.967545,575.014648 
z"/>
<path fill="#303C69" opacity="1.000000" stroke="none" 
	d="
M328.277832,77.375656 
	C332.172516,77.569084 331.088745,80.509193 330.879059,82.155388 
	C330.671997,83.780937 328.381012,83.157135 327.032928,83.366646 
	C325.069000,83.671867 325.373352,81.884094 325.035828,80.688919 
	C324.284973,78.030365 326.016754,77.681458 328.277832,77.375656 
z"/>
<path fill="#2B3764" opacity="1.000000" stroke="none" 
	d="
M412.925018,83.670364 
	C410.678345,84.229858 408.084473,85.309021 407.581543,81.992798 
	C407.419464,80.924194 407.394501,79.172371 408.633179,78.425529 
	C410.031158,77.582657 411.603851,78.410210 412.818939,79.033379 
	C415.001038,80.152496 412.837921,81.890686 412.925018,83.670364 
z"/>
<path fill="#333E6A" opacity="1.000000" stroke="none" 
	d="
M433.956909,90.591797 
	C432.377960,89.705132 429.817078,90.498680 430.150909,87.965965 
	C430.324371,86.649841 430.331024,84.609161 431.882843,84.240646 
	C433.375427,83.886208 435.730469,84.412621 436.190613,85.739441 
	C436.756714,87.371964 436.457550,89.635132 433.956909,90.591797 
z"/>
<path fill="#383D6B" opacity="1.000000" stroke="none" 
	d="
M372.071167,78.158813 
	C372.335602,82.082527 369.750580,80.984619 368.002136,81.064491 
	C366.027161,81.154716 366.107910,79.680511 366.153320,78.316422 
	C366.196655,77.014595 365.953796,75.376251 367.835083,75.310333 
	C369.609833,75.248123 372.138580,74.344734 372.071167,78.158813 
z"/>
<path fill="#444F77" opacity="1.000000" stroke="none" 
	d="
M150.227264,570.972046 
	C151.270065,572.898987 150.185638,573.616882 148.846802,573.802917 
	C148.382126,573.867493 147.241547,572.764587 147.328232,572.440430 
	C147.650101,571.236816 148.284439,570.020386 150.227264,570.972046 
z"/>
<path fill="#F3F4F6" opacity="1.000000" stroke="none" 
	d="
M308.175415,699.880859 
	C308.569519,697.611511 307.837585,694.663696 309.839783,694.211365 
	C312.656281,693.574951 315.848480,694.116638 318.460876,695.785828 
	C319.599335,696.513306 320.076111,697.847107 319.470459,699.323120 
	C318.812134,700.927551 317.467499,701.711914 315.939484,701.614197 
	C313.338196,701.447876 310.660004,701.477478 308.175415,699.880859 
z"/>
<path fill="#F3F4F6" opacity="1.000000" stroke="none" 
	d="
M199.014465,612.254639 
	C201.218781,613.325684 203.121017,614.307495 204.890915,615.487732 
	C206.728836,616.713501 207.570648,618.385498 206.303619,620.537537 
	C205.166000,622.469849 203.701172,623.156555 201.365417,622.383850 
	C194.533737,620.123779 194.166397,618.940491 199.014465,612.254639 
z"/>
<path fill="#F7F7F9" opacity="1.000000" stroke="none" 
	d="
M386.559998,702.699890 
	C389.323792,701.463318 391.108063,702.271484 392.215515,704.538879 
	C393.367889,706.898193 393.569489,709.391907 392.091125,711.643005 
	C390.388153,714.236145 386.385437,713.817261 385.292328,710.842773 
	C384.317963,708.191345 383.856262,705.330017 386.559998,702.699890 
z"/>
<path fill="#EEEFF3" opacity="1.000000" stroke="none" 
	d="
M98.775986,531.984131 
	C94.945404,526.568604 95.396812,526.076172 104.607285,525.105652 
	C102.488525,529.907715 101.699600,530.913635 98.775986,531.984131 
z"/>
<path fill="#F5F6F8" opacity="1.000000" stroke="none" 
	d="
M250.987152,645.636108 
	C254.570999,644.014282 256.873596,644.778748 257.414825,648.530334 
	C257.930084,652.102356 255.125336,656.541931 252.328705,656.590393 
	C249.518692,656.639160 248.066162,654.901367 248.120239,652.191406 
	C248.167206,649.837708 249.037155,647.681458 250.987152,645.636108 
z"/>
<path fill="#EEEFF3" opacity="1.000000" stroke="none" 
	d="
M390.124451,672.786743 
	C390.206726,667.604858 394.405884,669.040222 397.004547,668.222839 
	C398.096893,667.879211 398.036530,669.714905 397.712982,670.517578 
	C396.266724,674.105286 393.772400,675.077271 390.124451,672.786743 
z"/>
<path fill="#F3F4F6" opacity="1.000000" stroke="none" 
	d="
M126.651337,565.505371 
	C125.831299,564.644958 125.189842,564.107971 124.723473,563.447327 
	C124.140289,562.621277 122.332108,561.918701 123.536049,560.759094 
	C124.980820,559.367554 126.907455,559.711609 128.452545,560.967896 
	C130.189102,562.379944 130.668823,564.289246 129.560104,566.214111 
	C128.585709,567.905640 127.715546,566.459839 126.651337,565.505371 
z"/>
<path fill="#EEEFF3" opacity="1.000000" stroke="none" 
	d="
M423.177521,664.023010 
	C426.151794,665.468323 424.863129,667.208801 423.630066,668.670898 
	C422.240753,670.318237 420.200806,670.872559 418.292816,669.869629 
	C416.313110,668.828979 416.555939,667.158447 418.306854,666.045654 
	C419.663605,665.183350 421.286896,664.740417 423.177521,664.023010 
z"/>
<path fill="#EEEFF3" opacity="1.000000" stroke="none" 
	d="
M155.552734,598.940002 
	C156.855194,598.911194 158.097794,598.725464 158.709778,599.260803 
	C160.024353,600.410645 163.311157,599.984619 162.564941,602.578613 
	C162.000473,604.540894 159.647156,605.203369 157.523422,604.222229 
	C155.361572,603.223572 153.104401,602.110535 155.552734,598.940002 
z"/>
<path fill="#EAEBEF" opacity="1.000000" stroke="none" 
	d="
M227.426361,634.640198 
	C228.043274,637.140564 228.042648,638.852234 225.051407,637.394287 
	C224.904495,637.322754 224.749100,637.266968 224.607239,637.186890 
	C222.961594,636.257507 220.757614,636.187195 219.806625,634.276672 
	C219.678391,634.019043 220.683792,632.938904 221.348267,632.591125 
	C223.794281,631.310791 225.733017,632.151123 227.426361,634.640198 
z"/>
<path fill="#E6E7EC" opacity="1.000000" stroke="none" 
	d="
M329.162415,669.630981 
	C328.774994,672.170776 327.285767,673.151611 325.375183,673.447021 
	C323.526459,673.732910 321.465607,673.654724 321.004303,671.362732 
	C320.478699,668.750916 322.646698,668.317566 324.463593,668.347351 
	C326.034454,668.373169 327.998779,667.036438 329.162415,669.630981 
z"/>
<path fill="#EEEFF3" opacity="1.000000" stroke="none" 
	d="
M291.778992,660.092285 
	C290.283203,659.641418 288.241455,659.973083 288.894440,658.027710 
	C289.650635,655.774841 291.802216,655.474854 293.873871,656.013733 
	C295.817230,656.519287 297.210968,657.963745 296.821411,659.981750 
	C296.433838,661.989441 294.744171,660.637329 293.612579,660.576782 
	C293.132568,660.551147 292.664215,660.307983 291.778992,660.092285 
z"/>
<path fill="#EAEBEF" opacity="1.000000" stroke="none" 
	d="
M333.074158,712.965576 
	C330.694305,714.052063 328.832489,713.944031 327.433319,712.040527 
	C326.912872,711.332397 327.029236,710.410461 327.745148,709.807312 
	C329.673462,708.182800 332.586365,707.822693 334.250427,708.517944 
	C336.427643,709.427612 334.705414,711.495422 333.074158,712.965576 
z"/>
<path fill="#EEEFF3" opacity="1.000000" stroke="none" 
	d="
M369.081787,713.577271 
	C368.897522,708.334534 373.102753,710.080017 375.524841,709.291748 
	C376.475952,708.982178 376.478027,710.852661 376.098236,711.690613 
	C374.672241,714.837036 372.399780,715.755920 369.081787,713.577271 
z"/>
<path fill="#F4F4F7" opacity="1.000000" stroke="none" 
	d="
M544.022705,617.971924 
	C543.181152,621.876160 540.698364,623.121948 537.719482,621.728821 
	C534.581787,620.261292 532.726562,617.299561 533.593628,613.644775 
	C534.332031,610.532532 538.147461,609.580750 540.797729,611.678589 
	C542.661499,613.153931 543.793579,615.148315 544.022705,617.971924 
z"/>
</svg>